  <svg
    width="85"
    height="18"
    viewBox="0 0 85 18"
    fill="none"
    xmlns="http://www.w3.org/2000/svg"
  >
    <path
      d="M1.41561e-07 18V0.249999H6.3C8.21667 0.249999 9.81667 0.649999 11.1 1.45C12.3833 2.23333 13.3417 3.3 13.975 4.65C14.625 5.98333 14.95 7.46667 14.95 9.1C14.95 10.9 14.5917 12.4667 13.875 13.8C13.175 15.1333 12.175 16.1667 10.875 16.9C9.575 17.6333 8.05 18 6.3 18H1.41561e-07ZM12.1 9.1C12.1 7.85 11.8667 6.75 11.4 5.8C10.95 4.83333 10.2917 4.08333 9.425 3.55C8.575 3 7.53333 2.725 6.3 2.725H2.8V15.525H6.3C7.55 15.525 8.6 15.2417 9.45 14.675C10.3167 14.1083 10.975 13.3417 11.425 12.375C11.875 11.4083 12.1 10.3167 12.1 9.1ZM26.1113 0.249999H28.7613L35.6613 18H32.7113L30.8363 13.175H23.9863L22.1363 18H19.1613L26.1113 0.249999ZM30.2863 11.1L27.4363 3.325L24.4863 11.1H30.2863ZM41.6064 18V0.249999H44.4064V15.525H53.9314V18H41.6064ZM59.9561 18V0.249999H62.7561V18H59.9561ZM71.8176 0.249999L76.7176 9.075L81.6676 0.249999H84.7426L78.1176 11.65V18H75.3176V11.6L68.7426 0.249999H71.8176Z"
      fill="#7030A0"
    />
  </svg>